<svg width="96" height="96" xmlns="http://www.w3.org/2000/svg" xmlns:xlink="http://www.w3.org/1999/xlink" xml:space="preserve" overflow="hidden"><g transform="translate(-268 -453)"><path d="M348 517.96C347.947 515.024 346.576 512.267 344.267 510.453 340.53 507.396 336.139 505.508 331.53 503.86L326.63 501.847C326.251 501.696 326.001 501.329 326 500.921L326 498.473C329.792 495.443 332 490.854 332 486L332 478.443C342.975 479.77 344.164 481.816 344.164 478.57 344.194 476.45 340.684 473.83 330.324 470.72 329.706 465.78 327.8 457 323.766 457 319.516 457 318.666 458.1 316.116 458.1 313.566 458.1 312.716 457 308.466 457 304.466 457 302.016 465.73 301.166 470.68 290.746 473.79 287.166 476.44 287.166 478.57 287.166 481.786 288.129 479.806 298.866 478.479L295.92 481.843C297.273 482.057 298.652 482.044 300 481.805L300 486C300.001 490.849 302.206 495.435 305.993 498.465L305.993 500.92C305.993 501.326 305.747 501.691 305.372 501.845L300.434 503.872C296.376 505.189 292.527 507.079 289.003 509.483L289.003 514.907C289.351 514.391 289.778 513.932 290.268 513.548 292.698 511.645 295.393 510.108 298.268 508.985L299.6 521.875 299.157 521.875C298.158 521.874 297.311 522.61 297.174 523.6L295.524 535.477C293.301 535.128 291.117 534.561 289.005 533.785L289.005 537.994C295.363 540.04 305.843 541.065 316.281 541.065 329.581 541.065 342.787 539.407 347.195 536.1L347.995 535.5ZM304 486 304 480.866C306.083 480.223 308.088 479.351 309.978 478.266L307.918 481.681C312.126 481.574 316.195 480.151 319.553 477.613 322.762 477.683 325.569 477.834 328 478.035L328 486C328 492.627 322.627 498 316 498 309.373 498 304 492.627 304 486ZM323.949 504.873C321.372 505.649 318.691 506.029 316 506 313.307 506.028 310.626 505.647 308.047 504.871 309.278 503.93 310 502.47 310 500.921L310 500.821C313.847 502.392 318.158 502.392 322.005 500.821L322.005 500.921C322.002 502.469 322.721 503.93 323.949 504.873ZM302.455 526.5C301.627 526.5 300.955 525.828 300.955 525 300.955 524.172 301.627 523.5 302.455 523.5 303.283 523.5 303.955 524.172 303.955 525 303.955 525.828 303.283 526.5 302.455 526.5ZM304.633 521.875 303.12 507.167 303.32 507.097C306.25 508.929 310.877 510 316 510 321.123 510 325.748 508.928 328.68 507.1L328.713 507.111 327.2 521.875ZM329.455 526.5C328.627 526.5 327.955 525.828 327.955 525 327.955 524.172 328.627 523.5 329.455 523.5 330.283 523.5 330.955 524.172 330.955 525 330.955 525.828 330.283 526.5 329.455 526.5ZM344 533.407C341.568 534.525 338.981 535.27 336.327 535.617L334.653 523.6C334.516 522.611 333.67 521.875 332.672 521.875L332.23 521.875 333.562 508.92C336.509 510.06 339.273 511.629 341.762 513.576 343.134 514.64 343.956 516.264 344 518Z" fill="#76BC43"/><path d="M295.006 500.01 295.006 487.28C295.006 486.452 294.334 485.78 293.506 485.78 292.678 485.78 292.006 486.452 292.006 487.28L292.006 500C292.006 501.519 290.775 502.75 289.256 502.75L289.166 502.75 289.166 487.28C289.166 486.452 288.494 485.78 287.666 485.78 286.838 485.78 286.166 486.452 286.166 487.28L286.166 502.78 283.5 502.78 283.5 487.28C283.5 486.452 282.828 485.78 282 485.78 281.172 485.78 280.5 486.452 280.5 487.28L280.5 502.75C279.082 502.618 277.999 501.424 278.006 500L278.006 487.28C278.006 486.452 277.334 485.78 276.506 485.78 275.678 485.78 275.006 486.452 275.006 487.28L275.006 500C275.011 503.174 277.582 505.745 280.756 505.75L282.756 505.75 282.756 541 286.786 541 286.786 505.78 289.256 505.78C292.437 505.774 295.011 503.191 295.006 500.01Z" fill="#76BC43"/></g></svg>